<?xml version="1.0" encoding="utf-8"?>
<!-- Generator: Adobe Illustrator 17.0.0, SVG Export Plug-In . SVG Version: 6.00 Build 0)  -->
<!DOCTYPE svg PUBLIC "-//W3C//DTD SVG 1.1//EN" "http://www.w3.org/Graphics/SVG/1.1/DTD/svg11.dtd">
<svg version="1.1" id="Layer_1" xmlns="http://www.w3.org/2000/svg" xmlns:xlink="http://www.w3.org/1999/xlink" x="0px" y="0px"
	 width="511.948px" height="512px" viewBox="0 0 511.948 512" enable-background="new 0 0 511.948 512" xml:space="preserve">
<path fill="#828282" d="M498.196,222.695l-0.035-0.035L289.305,13.812C280.403,4.906,268.567,0,255.977,0
	c-12.59,0-24.426,4.902-33.332,13.808L13.899,222.55c-0.07,0.071-0.14,0.145-0.211,0.215c-18.281,18.387-18.25,48.219,0.09,66.559
	c8.379,8.383,19.445,13.238,31.277,13.746c0.481,0.047,0.965,0.07,1.454,0.07h8.324v153.7c0,30.414,24.746,55.16,55.168,55.16
	h81.711c8.281,0,15-6.715,15-15V376.5c0-13.879,11.289-25.168,25.168-25.168h48.195c13.879,0,25.168,11.289,25.168,25.168V497
	c0,8.285,6.715,15,15,15h81.711c30.422,0,55.168-24.746,55.168-55.16v-153.7h7.719c12.585,0,24.421-4.902,33.332-13.808
	C516.532,270.961,516.54,241.078,498.196,222.695"/>
<rect fill="none" width="511.948" height="512"/>
</svg>
