<?xml version="1.0" encoding="utf-8"?>
<!-- Generator: Adobe Illustrator 19.0.0, SVG Export Plug-In . SVG Version: 6.00 Build 0)  -->
<svg version="1.1" id="Layer_1" xmlns="http://www.w3.org/2000/svg" xmlns:xlink="http://www.w3.org/1999/xlink" x="0px" y="0px"
	 viewBox="-132 217 346 360" style="enable-background:new -132 217 346 360;" xml:space="preserve">
<style type="text/css">
	.st0{fill:#777777;}
</style>
<g>
	<g>
		<path class="st0" d="M76.8,374.8c-0.2-4.2,0.5-8.6-1.2-12.6c-1.9-3.8-6.8-4.2-10.4-3.2c-3.3,1.2-4.8,4.9-4.6,8.2
			c0,18.8,0.1,37.6,0,56.4c0.1,3.1-0.3,6.8,2.1,9.3c4.2,5.1,13.8,1.7,13.9-4.9C77.1,410.3,76.5,392.5,76.8,374.8z"/>
	</g>
	<g>
		<path class="st0" d="M135.2,397.3c-4.9-13.4-21.2-20-34.5-15.7c-19,5.6-24.6,33-11.3,46.8c10.1,10.9,29.2,10.9,39.7,0.5
			C137.3,420.9,138.7,407.8,135.2,397.3z M109,421.4c-12.3-0.7-14.4-20.5-3.8-25.2c4.5-2.1,10.2-0.6,13,3.5
			C123.8,407.2,120,422.2,109,421.4z"/>
	</g>
	<g>
		<path class="st0" d="M53.1,386.2c-2.8-6.6-11.3-5.6-15.5-1.1c-4.9-2.7-10.2-5.8-16-4.9c-11.8,1.7-22.3,12-22.9,24.2
			c-1.1,11.6,3.4,25.3,15,30c7.9,4,17.1,2.1,23.9-3.1c2.3,1.8,4.6,4.2,7.8,4c4.7,0.4,8.6-4.2,8.1-8.8
			C53.3,413.1,54.1,399.6,53.1,386.2z M24.6,421.4c-12.4-1.7-13-22.7-1.1-25.8c7.3-2.4,14,4.7,13.8,11.7
			C38.1,414.5,32.4,422.8,24.6,421.4z"/>
	</g>
	<g>
		<path class="st0" d="M-5.7,420.2c-10.2-1.1-20.5,0.2-30.8-0.6c9.8-13.5,20.9-26.2,30.7-39.7c2.3-3.3,4.8-7.6,2.7-11.6
			c-2.1-3.8-7-4.2-10.9-4.3c-10.9,0-21.8,0-32.7,0c-3.9,0.1-8.9,0.3-10.7,4.5c-2,4.3,1.5,9.7,6.3,9.7c8.9,0.6,17.8,0,26.7,0.3
			c-10.3,14-21.6,27.4-32.1,41.3c-2.3,3-3.7,7.3-1.4,10.7c2.2,4,7.2,4.4,11.3,4.3c11.4,0,22.7,0,34.1,0c3.5-0.1,7.5,0.3,10.2-2.4
			C0.7,428.5-0.4,421.3-5.7,420.2z"/>
	</g>
</g>
</svg>
