<?xml version="1.0" encoding="utf-8"?>
<!-- Generator: Adobe Illustrator 19.2.1, SVG Export Plug-In . SVG Version: 6.00 Build 0)  -->
<svg version="1.1" id="Layer_1" xmlns="http://www.w3.org/2000/svg" xmlns:xlink="http://www.w3.org/1999/xlink" x="0px" y="0px"
	 viewBox="0 0 500 500" style="enable-background:new 0 0 500 500;" xml:space="preserve">
<style type="text/css">
	.st0{fill:#353535;}
</style>
<g id="kGbrk8_1_">
	<g>
		<path class="st0" d="M392.8,258.5c3.1,7.9,3,15.8-0.6,23.6c-3.4,7.2-9.4,10.7-17.2,10.7c-8.1,0-14.4-4.8-17.2-12.5
			c-1.2-3.4-2-7-1.6-10.6c-0.4-3.8,0.5-7.4,1.8-10.8c3-7.9,9.7-12.7,17.5-12.7C383.1,246.1,389.7,250.7,392.8,258.5z"/>
		<path class="st0" d="M253.7,270.4c0.1-5.3-0.8-9.9-3-14.2c-3.5-6.6-9-10-16.4-10c-7.4,0-12.9,3.7-16.3,10.2
			c-3.8,7.5-4.2,15.3-1.5,23.2c2.8,8.3,9.8,13.3,18,13.3c8.6,0,15.6-5.5,18.1-14.2C253.4,275.8,253.8,272.9,253.7,270.4z
			 M253.7,270.4c0.1-5.3-0.8-9.9-3-14.2c-3.5-6.6-9-10-16.4-10c-7.4,0-12.9,3.7-16.3,10.2c-3.8,7.5-4.2,15.3-1.5,23.2
			c2.8,8.3,9.8,13.3,18,13.3c8.6,0,15.6-5.5,18.1-14.2C253.4,275.8,253.8,272.9,253.7,270.4z M254.6,3.5
			C118.1,1.1,4.8,110.1,3.4,247.3C2,387.4,115.5,497,249.9,496.5c133.6,0.5,244.4-106.8,246.6-242.1
			C498.8,113.7,385.9,5.8,254.6,3.5z M178.2,318.5c-8,1.6-16.2,0.6-24.3,0.9c-18.7,0.7-37.3,0.1-56-0.3c-2.8-0.1-5.7-0.3-8.5-0.7
			c-10.6-1.6-15.7-10.2-12.5-20.6c2-6.4,6.5-11.2,10.4-16.4c16.7-21.8,33.6-43.5,50.4-65.2c0.2-0.2,0.4-0.4,0.5-0.6
			c1.1-1.8,3.2-3.9,2.1-5.8c-1-1.8-3.7-0.8-5.7-0.7c-13.9,0.8-27.9,0.5-41.8-0.6c-11.3-0.9-17-8.6-13.9-18.1
			c2.3-7.2,8.7-8.8,15.2-9.4c15.7-1.4,31.4-0.6,47.1-0.6c9.9,0,19.8,0.1,29.6,0.7c9.7,0.5,16.1,8.6,14.5,17.8
			c-0.8,4.4-3.3,8-5.9,11.5c-19.5,25.7-38.9,51.3-58.4,77c-0.5,0.6-0.9,1.3-2,2.8h5.1c15.2,0,30.4,0,45.5,0c2.7,0,5.4,0.2,8.1,0.8
			c6.7,1.3,10.8,6.7,10.8,14.2C188.7,312.1,185,317.2,178.2,318.5z M282.9,302.5c0,6.6-2.6,11.7-8.8,14.2
			c-5.9,2.3-11.4,1.8-15.9-3.2c-1.9-2.1-4.1-2.5-6.5-0.9c-26.4,18.4-58-0.3-64.4-30c-4.2-19.3-0.3-36.9,14-51.2
			c13.5-13.5,33.5-15.5,49.5-5.2c3,1.9,5.2,2.1,7.7-0.7c4.4-5,9.9-5.1,15.6-3c6.1,2.2,8.7,7.2,8.8,13.3c0.2,11.4,0,22.8,0,34.1
			C282.9,280.8,282.9,291.7,282.9,302.5z M319.4,298.8c0,2.3-0.2,4.6-0.5,6.8c-1.3,8.7-6.5,12.6-15.7,12c-7-0.5-12-6-12.1-13.8
			c-0.1-18.3,0-36.6,0-54.8c0-18-0.1-36,0-54c0-10.9,8.1-16.9,18.6-13.9c6.3,1.8,9.8,6.8,9.8,14.6c0,18,0,36,0,54
			C319.4,266,319.4,282.4,319.4,298.8z M375.1,319.7c-30.6-0.2-48.2-22.8-48.3-50.5c0-29.1,20.1-49.3,48.9-49.3
			c25.5-0.5,48.5,18,48.4,49.8C424.1,299.4,403.7,319.9,375.1,319.7z M250.7,256.2c-3.5-6.6-9-10-16.4-10c-7.4,0-12.9,3.7-16.3,10.2
			c-3.8,7.5-4.2,15.3-1.5,23.2c2.8,8.3,9.8,13.3,18,13.3c8.6,0,15.6-5.5,18.1-14.2c0.8-2.9,1.3-5.8,1.1-8.3
			C253.8,265.1,252.9,260.5,250.7,256.2z"/>
		<path class="st0" d="M392.8,258.5c3.1,7.9,3,15.8-0.6,23.6c-3.4,7.2-9.4,10.7-17.2,10.7c-8.1,0-14.4-4.8-17.2-12.5
			c-1.2-3.4-2-7-1.6-10.6c-0.4-3.8,0.5-7.4,1.8-10.8c3-7.9,9.7-12.7,17.5-12.7C383.1,246.1,389.7,250.7,392.8,258.5z"/>
		<path class="st0" d="M253.7,270.4c0.1-5.3-0.8-9.9-3-14.2c-3.5-6.6-9-10-16.4-10c-7.4,0-12.9,3.7-16.3,10.2
			c-3.8,7.5-4.2,15.3-1.5,23.2c2.8,8.3,9.8,13.3,18,13.3c8.6,0,15.6-5.5,18.1-14.2C253.4,275.8,253.8,272.9,253.7,270.4z
			 M253.7,270.4c0.1-5.3-0.8-9.9-3-14.2c-3.5-6.6-9-10-16.4-10c-7.4,0-12.9,3.7-16.3,10.2c-3.8,7.5-4.2,15.3-1.5,23.2
			c2.8,8.3,9.8,13.3,18,13.3c8.6,0,15.6-5.5,18.1-14.2C253.4,275.8,253.8,272.9,253.7,270.4z M254.6,3.5
			C118.1,1.1,4.8,110.1,3.4,247.3C2,387.4,115.5,497,249.9,496.5c133.6,0.5,244.4-106.8,246.6-242.1
			C498.8,113.7,385.9,5.8,254.6,3.5z M178.2,318.5c-8,1.6-16.2,0.6-24.3,0.9c-18.7,0.7-37.3,0.1-56-0.3c-2.8-0.1-5.7-0.3-8.5-0.7
			c-10.6-1.6-15.7-10.2-12.5-20.6c2-6.4,6.5-11.2,10.4-16.4c16.7-21.8,33.6-43.5,50.4-65.2c0.2-0.2,0.4-0.4,0.5-0.6
			c1.1-1.8,3.2-3.9,2.1-5.8c-1-1.8-3.7-0.8-5.7-0.7c-13.9,0.8-27.9,0.5-41.8-0.6c-11.3-0.9-17-8.6-13.9-18.1
			c2.3-7.2,8.7-8.8,15.2-9.4c15.7-1.4,31.4-0.6,47.1-0.6c9.9,0,19.8,0.1,29.6,0.7c9.7,0.5,16.1,8.6,14.5,17.8
			c-0.8,4.4-3.3,8-5.9,11.5c-19.5,25.7-38.9,51.3-58.4,77c-0.5,0.6-0.9,1.3-2,2.8h5.1c15.2,0,30.4,0,45.5,0c2.7,0,5.4,0.2,8.1,0.8
			c6.7,1.3,10.8,6.7,10.8,14.2C188.7,312.1,185,317.2,178.2,318.5z M282.9,302.5c0,6.6-2.6,11.7-8.8,14.2
			c-5.9,2.3-11.4,1.8-15.9-3.2c-1.9-2.1-4.1-2.5-6.5-0.9c-26.4,18.4-58-0.3-64.4-30c-4.2-19.3-0.3-36.9,14-51.2
			c13.5-13.5,33.5-15.5,49.5-5.2c3,1.9,5.2,2.1,7.7-0.7c4.4-5,9.9-5.1,15.6-3c6.1,2.2,8.7,7.2,8.8,13.3c0.2,11.4,0,22.8,0,34.1
			C282.9,280.8,282.9,291.7,282.9,302.5z M319.4,298.8c0,2.3-0.2,4.6-0.5,6.8c-1.3,8.7-6.5,12.6-15.7,12c-7-0.5-12-6-12.1-13.8
			c-0.1-18.3,0-36.6,0-54.8c0-18-0.1-36,0-54c0-10.9,8.1-16.9,18.6-13.9c6.3,1.8,9.8,6.8,9.8,14.6c0,18,0,36,0,54
			C319.4,266,319.4,282.4,319.4,298.8z M375.1,319.7c-30.6-0.2-48.2-22.8-48.3-50.5c0-29.1,20.1-49.3,48.9-49.3
			c25.5-0.5,48.5,18,48.4,49.8C424.1,299.4,403.7,319.9,375.1,319.7z M250.7,256.2c-3.5-6.6-9-10-16.4-10c-7.4,0-12.9,3.7-16.3,10.2
			c-3.8,7.5-4.2,15.3-1.5,23.2c2.8,8.3,9.8,13.3,18,13.3c8.6,0,15.6-5.5,18.1-14.2c0.8-2.9,1.3-5.8,1.1-8.3
			C253.8,265.1,252.9,260.5,250.7,256.2z"/>
		<path class="st0" d="M252.6,278.7c-2.6,8.7-9.5,14.1-18.1,14.2c-8.2,0-15.2-5-18-13.3c-2.7-7.9-2.3-15.8,1.5-23.2
			c3.4-6.5,8.9-10.2,16.3-10.2c7.4,0,12.9,3.5,16.4,10c2.3,4.3,3.2,8.9,3,14.2C253.8,272.9,253.4,275.8,252.6,278.7z"/>
		<path class="st0" d="M392.2,282.1c-3.4,7.2-9.4,10.7-17.2,10.7c-8.1,0-14.4-4.8-17.2-12.5c-1.2-3.4-2-7-1.6-10.6
			c-0.4-3.8,0.5-7.4,1.8-10.8c3-7.9,9.7-12.7,17.5-12.7c7.6,0,14.3,4.6,17.3,12.4C395.9,266.4,395.8,274.3,392.2,282.1z"/>
		<path class="st0" d="M252.6,278.7c-2.6,8.7-9.5,14.1-18.1,14.2c-8.2,0-15.2-5-18-13.3c-2.7-7.9-2.3-15.8,1.5-23.2
			c3.4-6.5,8.9-10.2,16.3-10.2c7.4,0,12.9,3.5,16.4,10c2.3,4.3,3.2,8.9,3,14.2C253.8,272.9,253.4,275.8,252.6,278.7z"/>
		<path class="st0" d="M392.2,282.1c-3.4,7.2-9.4,10.7-17.2,10.7c-8.1,0-14.4-4.8-17.2-12.5c-1.2-3.4-2-7-1.6-10.6
			c-0.4-3.8,0.5-7.4,1.8-10.8c3-7.9,9.7-12.7,17.5-12.7c7.6,0,14.3,4.6,17.3,12.4C395.9,266.4,395.8,274.3,392.2,282.1z"/>
	</g>
</g>
</svg>
