<?xml version="1.0" encoding="utf-8"?>
<!-- Generator: Adobe Illustrator 16.0.0, SVG Export Plug-In . SVG Version: 6.00 Build 0)  -->
<!DOCTYPE svg PUBLIC "-//W3C//DTD SVG 1.1//EN" "http://www.w3.org/Graphics/SVG/1.1/DTD/svg11.dtd">
<svg version="1.1" id="Layer_1" xmlns="http://www.w3.org/2000/svg" xmlns:xlink="http://www.w3.org/1999/xlink" x="0px" y="0px"
	 width="486.5px" height="51px" viewBox="0 0 486.5 51" enable-background="new 0 0 486.5 51" xml:space="preserve">
<path fill="#F1F2F2" stroke="#E6E7E8" stroke-miterlimit="10" d="M486.5,25.5c0,13.808-10.88,25-24.3,25H24.8
	c-13.42,0-24.3-11.192-24.3-25l0,0c0-13.807,10.879-25,24.3-25h437.4C475.62,0.5,486.5,11.693,486.5,25.5L486.5,25.5z"/>
<g>
	<path fill="#6F6F70" d="M21.242,34.277V14.234h13.521V16.6H23.894v6.207H33.3v2.365h-9.406v9.105H21.242z"/>
	<path fill="#6F6F70" d="M36.978,27.018c0-2.689,0.747-4.681,2.242-5.975c1.249-1.076,2.771-1.613,4.566-1.613
		c1.996,0,3.627,0.654,4.895,1.961c1.267,1.309,1.9,3.115,1.9,5.422c0,1.868-0.28,3.338-0.841,4.408
		c-0.561,1.072-1.376,1.903-2.447,2.496c-1.071,0.592-2.24,0.889-3.507,0.889c-2.033,0-3.676-0.652-4.929-1.955
		C37.604,31.347,36.978,29.469,36.978,27.018z M39.507,27.018c0,1.859,0.405,3.252,1.217,4.176c0.811,0.926,1.832,1.389,3.063,1.389
		c1.221,0,2.237-0.465,3.049-1.395c0.811-0.93,1.217-2.348,1.217-4.252c0-1.796-0.408-3.156-1.224-4.082
		c-0.816-0.924-1.83-1.387-3.042-1.387c-1.23,0-2.251,0.46-3.063,1.381C39.913,23.768,39.507,25.158,39.507,27.018z"/>
	<path fill="#6F6F70" d="M53.412,34.277V14.234h2.461v20.043H53.412z"/>
	<path fill="#6F6F70" d="M59.632,34.277V14.234h2.461v20.043H59.632z"/>
	<path fill="#6F6F70" d="M64.992,27.018c0-2.689,0.747-4.681,2.242-5.975c1.249-1.076,2.771-1.613,4.566-1.613
		c1.996,0,3.627,0.654,4.895,1.961c1.267,1.309,1.9,3.115,1.9,5.422c0,1.868-0.28,3.338-0.841,4.408
		c-0.561,1.072-1.376,1.903-2.447,2.496c-1.071,0.592-2.24,0.889-3.507,0.889c-2.033,0-3.676-0.652-4.929-1.955
		C65.618,31.347,64.992,29.469,64.992,27.018z M67.521,27.018c0,1.859,0.405,3.252,1.217,4.176c0.811,0.926,1.832,1.389,3.063,1.389
		c1.221,0,2.237-0.465,3.049-1.395c0.811-0.93,1.217-2.348,1.217-4.252c0-1.796-0.408-3.156-1.224-4.082
		c-0.816-0.924-1.83-1.387-3.042-1.387c-1.23,0-2.251,0.46-3.063,1.381C67.926,23.768,67.521,25.158,67.521,27.018z"/>
	<path fill="#6F6F70" d="M84.16,34.277l-4.443-14.52h2.543l2.311,8.381l0.861,3.117c0.036-0.155,0.287-1.153,0.752-2.994
		l2.311-8.504h2.529l2.174,8.422l0.725,2.775l0.834-2.803l2.488-8.395h2.393l-4.539,14.52h-2.557l-2.311-8.695l-0.561-2.475
		l-2.939,11.17H84.16z"/>
	<path fill="#6F6F70" d="M115.523,34.277l-7.766-20.043h2.871l5.209,14.561c0.419,1.166,0.77,2.26,1.053,3.281
		c0.31-1.094,0.67-2.188,1.08-3.281l5.414-14.561h2.707l-7.848,20.043H115.523z"/>
	<path fill="#6F6F70" d="M127.664,17.064v-2.83h2.461v2.83H127.664z M127.664,34.277v-14.52h2.461v14.52H127.664z"/>
	<path fill="#6F6F70" d="M143.81,29.602l2.543,0.314c-0.401,1.485-1.144,2.639-2.229,3.459c-1.085,0.82-2.47,1.23-4.156,1.23
		c-2.124,0-3.808-0.654-5.052-1.963c-1.244-1.307-1.866-3.142-1.866-5.502c0-2.443,0.629-4.339,1.887-5.688
		c1.258-1.35,2.889-2.023,4.895-2.023c1.941,0,3.527,0.66,4.758,1.982c1.23,1.321,1.846,3.181,1.846,5.578
		c0,0.146-0.005,0.364-0.014,0.656h-10.828c0.091,1.595,0.542,2.816,1.354,3.664c0.811,0.848,1.823,1.271,3.035,1.271
		c0.902,0,1.672-0.237,2.311-0.711C142.93,31.396,143.436,30.641,143.81,29.602z M135.73,25.623h8.107
		c-0.109-1.222-0.419-2.138-0.93-2.748c-0.784-0.948-1.8-1.422-3.049-1.422c-1.13,0-2.081,0.378-2.851,1.135
		C136.238,23.344,135.812,24.355,135.73,25.623z"/>
	<path fill="#6F6F70" d="M154.816,32.076l0.355,2.174c-0.693,0.145-1.313,0.219-1.859,0.219c-0.894,0-1.586-0.143-2.078-0.424
		c-0.492-0.283-0.839-0.654-1.039-1.115c-0.201-0.459-0.301-1.428-0.301-2.904v-8.354h-1.805v-1.914h1.805v-3.596l2.447-1.477v5.072
		h2.475v1.914h-2.475v8.49c0,0.701,0.043,1.152,0.13,1.354c0.086,0.2,0.228,0.359,0.424,0.479c0.196,0.118,0.476,0.178,0.841,0.178
		C154.009,32.172,154.369,32.14,154.816,32.076z"/>
	<path fill="#6F6F70" d="M157.509,34.277V14.234h2.721l10.527,15.736V14.234h2.543v20.043h-2.721l-10.527-15.75v15.75H157.509z"/>
	<path fill="#6F6F70" d="M186.917,32.486c-0.912,0.774-1.789,1.321-2.632,1.641c-0.843,0.318-1.748,0.479-2.714,0.479
		c-1.595,0-2.821-0.391-3.678-1.17c-0.857-0.779-1.285-1.774-1.285-2.986c0-0.711,0.162-1.361,0.485-1.949
		c0.323-0.588,0.747-1.059,1.271-1.414c0.524-0.355,1.114-0.625,1.771-0.807c0.483-0.128,1.212-0.251,2.188-0.369
		c1.987-0.237,3.45-0.52,4.389-0.848c0.009-0.338,0.014-0.552,0.014-0.643c0-1.003-0.232-1.709-0.697-2.119
		c-0.629-0.557-1.563-0.834-2.803-0.834c-1.158,0-2.012,0.203-2.563,0.607c-0.552,0.406-0.959,1.124-1.224,2.154l-2.406-0.328
		c0.219-1.03,0.579-1.861,1.08-2.496c0.501-0.633,1.226-1.121,2.174-1.463c0.948-0.342,2.046-0.512,3.295-0.512
		c1.239,0,2.247,0.146,3.021,0.438c0.774,0.291,1.344,0.658,1.709,1.1c0.364,0.443,0.62,1.001,0.766,1.676
		c0.082,0.419,0.123,1.176,0.123,2.27v3.281c0,2.287,0.052,3.734,0.157,4.34c0.104,0.607,0.312,1.188,0.622,1.744h-2.57
		C187.154,33.767,186.99,33.17,186.917,32.486z M186.712,26.99c-0.894,0.364-2.233,0.674-4.02,0.93
		c-1.012,0.146-1.728,0.31-2.146,0.492c-0.419,0.182-0.743,0.449-0.971,0.799c-0.228,0.352-0.342,0.741-0.342,1.17
		c0,0.656,0.248,1.203,0.745,1.641c0.497,0.438,1.224,0.656,2.181,0.656c0.948,0,1.791-0.207,2.529-0.623
		c0.738-0.414,1.28-0.981,1.627-1.701c0.264-0.557,0.396-1.377,0.396-2.461V26.99z"/>
	<path fill="#6F6F70" d="M193.015,34.277v-14.52h2.201v2.037c0.456-0.711,1.062-1.283,1.818-1.717
		c0.756-0.432,1.618-0.648,2.584-0.648c1.075,0,1.957,0.223,2.646,0.67c0.688,0.446,1.173,1.07,1.456,1.873
		c1.148-1.695,2.643-2.543,4.484-2.543c1.44,0,2.547,0.398,3.322,1.195c0.774,0.799,1.162,2.026,1.162,3.686v9.967h-2.447v-9.146
		c0-0.984-0.08-1.693-0.239-2.127c-0.16-0.432-0.449-0.781-0.868-1.045c-0.419-0.265-0.912-0.396-1.477-0.396
		c-1.021,0-1.869,0.34-2.543,1.018c-0.675,0.68-1.012,1.767-1.012,3.262v8.436h-2.461v-9.434c0-1.094-0.201-1.914-0.602-2.461
		c-0.401-0.547-1.058-0.82-1.969-0.82c-0.693,0-1.333,0.182-1.921,0.547c-0.588,0.364-1.014,0.897-1.278,1.6
		c-0.265,0.701-0.396,1.713-0.396,3.035v7.533H193.015z"/>
	<path fill="#6F6F70" d="M216.339,34.277v-14.52h2.215v2.064c1.066-1.596,2.605-2.393,4.621-2.393c0.875,0,1.68,0.156,2.412,0.471
		c0.734,0.314,1.283,0.728,1.648,1.238c0.363,0.51,0.619,1.116,0.766,1.818c0.09,0.455,0.137,1.253,0.137,2.393v8.928h-2.461v-8.832
		c0-1.003-0.096-1.752-0.287-2.25c-0.191-0.496-0.531-0.893-1.02-1.189c-0.486-0.295-1.059-0.443-1.715-0.443
		c-1.049,0-1.953,0.332-2.715,0.998c-0.76,0.665-1.141,1.928-1.141,3.787v7.93H216.339z"/>
	<path fill="#6F6F70" d="M241.852,29.602l2.543,0.314c-0.401,1.485-1.144,2.639-2.229,3.459s-2.47,1.23-4.156,1.23
		c-2.124,0-3.808-0.654-5.052-1.963c-1.244-1.307-1.866-3.142-1.866-5.502c0-2.443,0.629-4.339,1.887-5.688
		c1.258-1.35,2.89-2.023,4.895-2.023c1.941,0,3.527,0.66,4.758,1.982c1.23,1.321,1.846,3.181,1.846,5.578
		c0,0.146-0.005,0.364-0.014,0.656h-10.828c0.091,1.595,0.542,2.816,1.354,3.664s1.823,1.271,3.035,1.271
		c0.902,0,1.673-0.237,2.311-0.711C240.972,31.396,241.478,30.641,241.852,29.602z M233.771,25.623h8.107
		c-0.109-1.222-0.419-2.138-0.93-2.748c-0.784-0.948-1.8-1.422-3.049-1.422c-1.13,0-2.08,0.378-2.851,1.135
		C234.279,23.344,233.854,24.355,233.771,25.623z"/>
	<path fill="#6F6F70" d="M252.857,32.076l0.355,2.174c-0.692,0.145-1.313,0.219-1.859,0.219c-0.894,0-1.586-0.143-2.078-0.424
		c-0.492-0.283-0.839-0.654-1.039-1.115c-0.2-0.459-0.301-1.428-0.301-2.904v-8.354h-1.805v-1.914h1.805v-3.596l2.447-1.477v5.072
		h2.475v1.914h-2.475v8.49c0,0.701,0.043,1.152,0.13,1.354c0.087,0.2,0.228,0.359,0.424,0.479c0.196,0.118,0.477,0.178,0.841,0.178
		C252.051,32.172,252.411,32.14,252.857,32.076z"/>
	<path fill="#6F6F70" d="M262.127,27.018c0-2.689,0.747-4.681,2.242-5.975c1.249-1.076,2.771-1.613,4.566-1.613
		c1.996,0,3.628,0.654,4.895,1.961c1.267,1.309,1.9,3.115,1.9,5.422c0,1.868-0.28,3.338-0.841,4.408
		c-0.561,1.072-1.376,1.903-2.447,2.496c-1.071,0.592-2.24,0.889-3.507,0.889c-2.032,0-3.676-0.652-4.929-1.955
		C262.754,31.347,262.127,29.469,262.127,27.018z M264.656,27.018c0,1.859,0.405,3.252,1.217,4.176
		c0.812,0.926,1.832,1.389,3.063,1.389c1.222,0,2.237-0.465,3.049-1.395s1.217-2.348,1.217-4.252c0-1.796-0.408-3.156-1.224-4.082
		c-0.815-0.924-1.83-1.387-3.042-1.387c-1.23,0-2.251,0.46-3.063,1.381C265.062,23.768,264.656,25.158,264.656,27.018z"/>
	<path fill="#6F6F70" d="M278.615,34.277v-14.52h2.215v2.064c1.066-1.596,2.606-2.393,4.621-2.393c0.875,0,1.68,0.156,2.413,0.471
		s1.283,0.728,1.647,1.238c0.364,0.51,0.62,1.116,0.766,1.818c0.091,0.455,0.137,1.253,0.137,2.393v8.928h-2.461v-8.832
		c0-1.003-0.096-1.752-0.287-2.25c-0.191-0.496-0.531-0.893-1.019-1.189c-0.487-0.295-1.06-0.443-1.716-0.443
		c-1.048,0-1.953,0.332-2.714,0.998c-0.761,0.665-1.142,1.928-1.142,3.787v7.93H278.615z"/>
</g>
<g>
	<path fill="#557DBD" d="M319.435,23.948h9.126c0.104,0.416,0.182,1.04,0.182,1.638c0,2.393-0.701,4.551-2.262,6.215
		c-1.664,1.768-3.979,2.781-6.968,2.781c-5.408,0-9.829-4.107-9.829-9.725c0-5.615,4.421-9.724,9.829-9.724
		c3.017,0,5.408,1.093,7.099,2.938l-2.418,2.365c-1.223-1.273-2.627-1.976-4.707-1.976c-3.406,0-6.292,2.522-6.292,6.396
		c0,3.875,2.912,6.396,6.345,6.396c1.976,0,3.302-0.623,4.264-1.533c0.702-0.625,1.195-1.612,1.482-2.783h-5.851V23.948z"/>
	<path fill="#DE3435" d="M343.9,27.797c0,3.951-2.834,6.785-6.76,6.785s-6.76-2.834-6.76-6.785c0-3.953,2.834-6.787,6.76-6.787
		S343.9,23.844,343.9,27.797z M340.494,27.797c0-2.289-1.586-3.641-3.354-3.641s-3.354,1.352-3.354,3.641
		c0,2.287,1.586,3.64,3.354,3.64S340.494,30.084,340.494,27.797z"/>
	<path fill="#F1C32F" d="M358.877,27.797c0,3.951-2.834,6.785-6.76,6.785c-3.928,0-6.762-2.834-6.762-6.785
		c0-3.953,2.834-6.787,6.762-6.787C356.043,21.01,358.877,23.844,358.877,27.797z M355.471,27.797c0-2.289-1.586-3.641-3.354-3.641
		c-1.77,0-3.355,1.352-3.355,3.641c0,2.287,1.586,3.64,3.355,3.64C353.885,31.437,355.471,30.084,355.471,27.797z"/>
	<path fill="#557DBD" d="M360.645,36.351l3.25-1.3c0.494,1.352,1.689,2.132,3.041,2.132c2.158,0,3.484-1.403,3.484-3.796v-0.885
		h-0.207c-0.807,1.119-2.107,1.795-3.875,1.795c-3.016,0-6.006-2.601-6.006-6.631c0-4.057,2.99-6.656,6.006-6.656
		c1.768,0,3.068,0.676,3.875,1.795h0.207v-1.379h3.25v11.83c0,4.291-2.729,6.943-6.734,6.943
		C363.375,40.199,361.268,38.119,360.645,36.351z M370.42,27.666c0-2.314-1.664-3.588-3.354-3.588c-1.664,0-3.328,1.301-3.328,3.588
		c0,2.289,1.664,3.563,3.328,3.563C368.756,31.229,370.42,29.955,370.42,27.666z"/>
	<path fill="#44B455" d="M376.582,34.166V15.55h3.406v18.616H376.582z"/>
	<path fill="#DE3435" d="M394.834,31.098c-1.17,2.08-3.146,3.484-6.031,3.484c-3.875,0-6.76-2.859-6.76-6.785
		c0-3.666,2.781-6.787,6.629-6.787c4.109,0,6.371,2.86,6.371,6.683v0.312c-0.027,0.104-0.027,0.209-0.027,0.287
		c-0.025,0.077-0.025,0.182-0.025,0.285h-9.594c0.285,2.08,1.871,2.99,3.457,2.99c1.561,0,2.549-0.807,3.146-1.872L394.834,31.098z
		 M391.74,26.158c-0.078-0.936-1.014-2.366-3.068-2.366c-1.455,0-2.652,0.884-3.094,2.366H391.74z"/>
	<path fill="#6F6F70" d="M405.754,34.166h-2.393V15.55h2.912l9.049,14.482h0.104l-0.104-3.588V15.55h2.391v18.616h-2.496
		l-9.463-15.184h-0.105l0.105,3.588V34.166z"/>
	<path fill="#6F6F70" d="M422.133,32.658c-1.221-1.273-1.818-2.912-1.818-4.861c0-1.951,0.598-3.563,1.768-4.837
		c1.17-1.3,2.678-1.95,4.523-1.95c3.77,0,6.189,2.574,6.189,6.969l-0.027,0.26h-10.01c0.025,1.248,0.441,2.262,1.248,3.016
		s1.742,1.145,2.859,1.145c1.535,0,2.73-0.754,3.588-2.288l2.133,1.04c-1.145,2.158-3.25,3.432-5.824,3.432
		C424.891,34.582,423.355,33.933,422.133,32.658z M430.246,26.262c-0.131-1.768-1.508-3.068-3.691-3.068
		c-1.795,0-3.199,1.197-3.615,3.068H430.246z"/>
	<path fill="#6F6F70" d="M452.762,21.426l-4.107,12.74h-2.445l-3.172-9.775l-3.146,9.775h-2.418l-4.107-12.74h2.496l2.834,9.621
		h0.025l3.146-9.621h2.471l3.146,9.621h0.025l2.809-9.621H452.762z"/>
	<path fill="#6F6F70" d="M462.615,33.438c-0.963,0.754-2.184,1.144-3.666,1.144c-2.574,0-4.629-1.455-5.461-3.64l2.133-0.91
		c0.623,1.534,1.898,2.419,3.328,2.419c1.533,0,2.678-0.755,2.678-1.664c0-0.807-0.623-1.404-1.871-1.795l-2.186-0.546
		c-2.469-0.624-3.717-1.819-3.717-3.589c0-1.17,0.467-2.08,1.404-2.781c0.961-0.702,2.156-1.066,3.639-1.066
		c2.262,0,4.238,1.17,4.967,2.965l-2.133,0.883c-0.494-1.065-1.664-1.715-3.016-1.715c-1.248,0-2.418,0.701-2.418,1.611
		c0,0.729,0.676,1.248,2.055,1.561l1.924,0.494c2.521,0.623,3.795,1.898,3.795,3.822C464.07,31.748,463.578,32.685,462.615,33.438z"
		/>
</g>
</svg>
